<?xml version="1.0" standalone="no"?>
<!DOCTYPE svg PUBLIC "-//W3C//DTD SVG 20010904//EN"
 "http://www.w3.org/TR/2001/REC-SVG-20010904/DTD/svg10.dtd">
<svg version="1.0" xmlns="http://www.w3.org/2000/svg"
 width="1088.000000pt" height="1088.000000pt" viewBox="0 0 1088.000000 1088.000000"
 preserveAspectRatio="xMidYMid meet">
<metadata>
Created by potrace 1.14, written by Peter Selinger 2001-2017
</metadata>
<g transform="translate(0.000000,1088.000000) scale(0.100000,-0.100000)"
fill="#000000" stroke="none">
<path d="M5345 10386 c-22 -7 -58 -24 -80 -38 -42 -26 -187 -78 -206 -74 -3 0
-12 -4 -20 -10 -8 -7 -43 -21 -79 -32 -59 -19 -170 -58 -435 -152 -49 -17 -97
-33 -105 -35 -8 -2 -36 -12 -62 -24 -27 -11 -48 -18 -48 -15 0 2 -9 0 -21 -6
-11 -6 -28 -13 -37 -15 -9 -2 -69 -22 -132 -45 -63 -23 -123 -43 -134 -45 -10
-3 -23 -9 -30 -14 -6 -5 -14 -10 -18 -10 -28 -3 -42 -7 -58 -14 -16 -7 -298
-107 -315 -111 -5 -2 -17 -6 -25 -9 -51 -22 -270 -94 -270 -90 0 3 -6 1 -12
-4 -11 -9 -74 -33 -100 -39 -5 -1 -10 -3 -13 -4 -3 -1 -8 -3 -12 -5 -13 -3
-46 -16 -73 -27 -14 -6 -32 -12 -40 -13 -8 -2 -80 -26 -160 -55 -207 -74 -250
-88 -250 -81 0 3 -4 1 -8 -4 -4 -6 -36 -20 -72 -32 -86 -28 -457 -157 -815
-283 -159 -56 -294 -103 -300 -105 -5 -1 -17 -5 -25 -8 -8 -3 -44 -16 -80 -27
-36 -12 -74 -25 -85 -30 -11 -5 -81 -29 -155 -55 -74 -26 -160 -56 -190 -67
-30 -11 -59 -21 -65 -23 -5 -1 -19 -5 -30 -9 -11 -5 -45 -17 -75 -28 -75 -28
-202 -89 -218 -105 -7 -7 -18 -13 -24 -13 -6 0 -33 -16 -59 -35 -27 -19 -52
-35 -55 -35 -14 0 -174 -171 -206 -220 -56 -88 -109 -206 -122 -277 -3 -15 -9
-53 -15 -83 -11 -60 -9 -2512 2 -2566 12 -60 60 -200 84 -248 59 -116 136
-204 288 -324 20 -16 161 -97 200 -116 22 -10 52 -25 68 -33 15 -8 27 -11 27
-7 0 3 6 2 13 -3 6 -6 37 -18 67 -28 30 -10 61 -23 69 -29 8 -6 16 -10 18 -8
1 1 4 2 6 1 1 0 10 -2 19 -4 10 -2 51 -16 90 -31 40 -16 75 -29 78 -29 23 -4
364 -124 383 -136 11 -6 21 -8 24 -5 3 3 15 0 27 -6 11 -7 26 -13 31 -14 20
-4 250 -85 270 -95 12 -6 28 -11 38 -13 9 -1 20 -5 23 -9 4 -4 16 -7 26 -7 10
0 26 -4 36 -9 17 -10 48 -22 67 -27 6 -1 48 -16 95 -34 47 -17 93 -33 102 -35
9 -2 26 -9 37 -15 12 -6 21 -7 21 -3 0 4 5 2 12 -5 7 -7 20 -12 30 -12 10 0
26 -4 36 -9 19 -11 57 -24 57 -20 0 1 10 -3 23 -10 13 -7 31 -14 40 -16 9 -2
55 -18 102 -35 47 -17 90 -32 95 -34 6 -1 35 -11 65 -21 30 -11 57 -20 60 -20
5 -1 93 -32 125 -45 26 -10 51 -19 230 -80 83 -28 159 -55 170 -60 24 -10 142
-51 159 -55 6 -1 22 -7 36 -12 14 -6 59 -22 100 -36 65 -22 262 -91 443 -155
31 -11 57 -18 57 -15 0 3 6 1 13 -4 9 -8 122 -50 157 -58 7 -2 42 -15 65 -25
11 -5 61 -22 110 -39 73 -24 354 -122 415 -144 77 -28 140 -50 165 -57 125
-36 152 -58 134 -107 -5 -14 -5 -23 1 -23 6 0 6 -9 0 -25 -6 -17 -6 -25 1 -25
6 0 7 -6 0 -17 -5 -10 -5 -26 0 -40 5 -14 5 -23 -1 -23 -6 0 -6 -9 0 -25 6
-15 6 -26 0 -30 -7 -4 -6 -13 0 -26 7 -12 7 -19 1 -19 -7 0 -7 -9 -1 -25 6
-16 6 -25 0 -25 -6 0 -6 -10 0 -26 7 -16 7 -23 0 -19 -7 4 -7 -3 0 -19 6 -16
6 -26 0 -26 -6 0 -6 -9 0 -25 6 -15 6 -26 0 -30 -7 -4 -6 -13 0 -26 7 -12 7
-19 1 -19 -7 0 -7 -9 -1 -25 6 -16 6 -25 0 -25 -6 0 -6 -10 0 -26 7 -16 7 -23
0 -19 -7 4 -7 -3 0 -19 6 -16 6 -26 0 -26 -6 0 -6 -9 0 -25 6 -15 6 -26 0 -30
-7 -4 -6 -13 0 -26 7 -12 7 -19 1 -19 -7 0 -7 -9 -1 -25 6 -16 6 -25 0 -25 -6
0 -6 -10 0 -26 7 -16 7 -23 0 -19 -7 4 -7 -3 0 -19 6 -16 6 -26 0 -26 -6 0 -6
-9 0 -25 6 -15 6 -26 0 -30 -7 -4 -6 -13 0 -26 7 -12 7 -19 1 -19 -7 0 -7 -9
-1 -25 6 -16 6 -25 0 -25 -6 0 -6 -10 0 -26 7 -16 7 -23 0 -19 -7 4 -7 -3 0
-19 6 -16 6 -26 0 -26 -6 0 -6 -9 0 -25 6 -15 6 -26 0 -30 -7 -4 -6 -13 0 -26
7 -12 7 -19 1 -19 -7 0 -7 -9 -1 -25 6 -16 6 -25 0 -25 -6 0 -6 -10 0 -26 7
-16 7 -23 0 -19 -7 4 -7 -3 0 -19 6 -16 6 -26 0 -26 -6 0 -6 -9 0 -25 6 -15 6
-26 0 -30 -7 -4 -6 -13 0 -26 7 -12 7 -19 1 -19 -7 0 -7 -9 -1 -25 6 -16 6
-25 0 -25 -6 0 -6 -10 0 -26 7 -16 7 -23 0 -19 -7 4 -7 -3 0 -19 6 -18 6 -26
-1 -26 -6 0 -8 -4 -4 -10 3 -5 8 -34 10 -64 3 -29 12 -70 20 -89 13 -32 13
-40 -5 -93 -11 -32 -18 -64 -16 -71 3 -7 1 -15 -5 -18 -5 -4 -6 -11 -3 -17 4
-6 8 -22 9 -37 5 -65 34 -127 82 -178 41 -44 129 -93 165 -93 13 0 35 -6 49
-14 24 -12 39 -9 174 40 81 29 150 52 154 51 3 0 15 4 26 9 11 6 99 38 195 70
96 32 178 64 182 69 4 6 8 7 8 3 0 -4 51 11 113 33 166 59 340 119 357 124 8
2 37 13 63 24 27 11 58 23 70 25 13 2 39 11 60 19 20 9 37 13 37 10 0 -3 11 2
25 11 14 9 25 14 25 11 0 -3 9 -1 21 5 11 6 28 13 37 15 9 2 69 22 132 45 63
22 156 54 205 71 50 17 99 35 110 39 38 17 165 59 165 54 0 -2 12 4 27 13 15
10 28 17 30 16 2 -2 4 -3 6 -2 1 0 9 2 17 4 8 2 39 13 68 24 28 12 52 18 52
15 0 -4 6 -2 13 3 6 6 95 39 197 73 102 35 190 66 195 70 6 4 21 10 35 13 14
3 62 18 107 35 45 16 84 27 87 24 3 -3 6 0 6 6 0 7 3 11 8 11 4 -1 9 -1 12 1
3 1 16 3 29 6 14 2 29 8 35 13 12 9 67 25 79 23 4 -1 7 3 7 10 0 6 3 9 6 5 4
-3 19 0 35 9 16 8 29 12 29 8 0 -4 7 -1 15 6 8 7 15 9 15 5 0 -4 6 -3 13 2 6
6 33 16 60 23 26 7 47 17 47 22 0 5 4 7 9 4 5 -4 22 -1 38 6 15 6 31 12 36 13
4 2 8 3 10 5 1 1 9 3 17 5 8 2 35 11 60 20 83 31 355 126 365 128 6 2 24 8 40
14 17 6 39 15 50 19 11 4 23 8 28 9 4 2 8 3 10 4 1 2 12 4 25 7 13 2 36 11 52
19 17 9 32 15 35 14 3 -1 18 3 33 9 15 6 36 13 47 18 11 4 25 8 30 9 6 2 51
17 100 35 50 17 110 39 135 47 25 8 52 17 60 20 32 12 175 64 185 67 42 13
219 99 223 109 2 4 8 7 12 7 5 0 29 14 52 30 24 17 54 38 68 48 27 18 145 135
170 168 62 83 93 142 127 239 26 75 29 86 40 155 5 25 8 608 8 1295 0 1063 -2
1258 -15 1305 -8 30 -15 57 -15 60 -15 73 -57 165 -117 255 -43 64 -171 197
-200 208 -10 3 -18 11 -18 17 0 5 -4 10 -9 10 -6 0 -30 13 -54 30 -40 26 -186
106 -205 111 -10 3 -73 28 -102 41 -14 6 -32 12 -40 13 -8 1 -85 27 -170 58
-85 30 -209 74 -275 97 -66 22 -142 50 -170 60 -47 17 -86 30 -110 36 -5 2
-35 12 -65 24 -30 12 -62 23 -70 25 -14 3 -148 50 -180 62 -8 4 -17 7 -20 8
-18 4 -88 28 -105 35 -25 10 -57 22 -70 26 -5 1 -82 28 -170 59 -259 91 -299
105 -315 109 -20 6 -160 55 -185 66 -11 5 -54 20 -95 33 -41 14 -126 43 -187
65 -62 22 -113 38 -113 35 0 -3 -6 -1 -12 4 -15 12 -150 58 -160 55 -5 -1 -8
3 -8 8 0 6 -9 10 -20 10 -10 0 -32 5 -47 11 -104 42 -153 59 -153 54 0 -3 -10
0 -22 7 -13 7 -25 13 -28 13 -10 2 -116 37 -135 45 -22 10 -142 52 -225 80
-30 10 -127 44 -215 75 -88 31 -168 58 -177 60 -9 2 -27 9 -40 16 -13 7 -25
12 -28 12 -3 0 -16 4 -30 9 -14 5 -37 12 -52 15 -16 3 -28 10 -28 16 0 6 -3 8
-6 5 -3 -4 -69 16 -147 44 -78 27 -173 61 -212 74 -38 13 -107 37 -152 53 -46
17 -83 28 -83 24 0 -3 -7 0 -15 7 -8 7 -15 9 -15 6 0 -4 -6 -1 -14 7 -8 8 -13
26 -12 41 2 14 -1 26 -6 26 -5 0 -4 9 2 19 7 13 7 22 0 26 -7 4 -7 13 0 24 6
12 5 22 -1 28 -8 8 -7 13 0 17 8 5 8 13 1 26 -7 13 -7 21 0 25 6 4 7 13 1 23
-6 11 -6 24 0 35 7 11 6 17 -1 17 -7 0 -8 6 0 19 7 13 7 22 0 26 -7 4 -7 13 0
24 6 12 5 22 -1 28 -8 8 -7 13 0 17 8 5 8 13 1 26 -7 13 -7 21 0 25 6 4 7 13
1 23 -6 11 -6 24 0 35 7 11 6 17 -1 17 -7 0 -8 6 0 19 7 13 7 22 0 26 -7 4 -7
13 0 24 6 12 5 22 -1 28 -8 8 -7 13 0 17 8 5 8 13 1 26 -7 13 -7 21 0 25 6 4
7 13 1 23 -6 11 -6 24 0 35 7 11 6 17 -1 17 -7 0 -8 6 0 19 7 13 7 22 0 26 -7
4 -7 12 0 25 6 10 6 21 1 24 -9 6 -7 48 4 65 3 6 1 11 -5 11 -8 0 -8 6 0 20 8
14 8 20 0 20 -8 0 -8 6 0 20 8 14 8 20 0 20 -8 0 -8 6 0 20 8 14 8 20 0 20 -8
0 -8 6 0 20 8 14 8 20 0 20 -8 0 -8 6 0 20 8 14 8 20 0 20 -8 0 -8 6 0 20 8
14 8 20 0 20 -8 0 -8 6 0 20 8 14 8 20 0 20 -8 0 -8 6 0 20 8 14 8 20 0 20 -8
0 -8 6 0 20 8 14 8 20 0 20 -8 0 -8 6 0 20 8 14 8 20 0 20 -8 0 -8 6 0 20 8
14 8 20 0 20 -8 0 -8 6 0 20 8 14 8 20 0 20 -8 0 -8 6 0 20 8 14 8 20 0 20 -8
0 -8 6 0 20 8 14 8 20 0 20 -6 0 -8 5 -5 11 10 15 12 80 3 85 -4 3 -3 16 2 30
7 17 7 23 0 19 -7 -4 -7 3 0 19 6 16 6 26 0 26 -6 0 -6 10 0 26 7 16 7 23 0
19 -7 -4 -7 3 0 19 6 16 6 26 0 26 -6 0 -6 9 0 25 6 16 6 25 0 25 -6 0 -6 9 0
25 6 16 6 25 -1 25 -6 0 -6 7 1 19 7 13 7 22 0 26 -6 3 -7 14 -2 23 9 21 9 43
-1 60 -5 7 -3 12 3 12 6 0 8 5 4 11 -3 6 -9 28 -11 48 -11 76 -65 158 -141
210 -66 46 -186 63 -267 37z m-226 -793 c5 -10 5 -26 0 -40 -5 -14 -5 -23 1
-23 6 0 6 -10 0 -26 -7 -16 -7 -23 0 -19 7 4 7 -3 0 -19 -6 -16 -6 -26 0 -26
6 0 6 -9 0 -25 -5 -14 -6 -25 -2 -25 9 0 6 -75 -3 -90 -3 -6 -2 -10 4 -10 7 0
7 -8 1 -26 -7 -16 -7 -23 0 -19 7 4 7 -3 0 -19 -6 -16 -6 -26 0 -26 6 0 6 -9
0 -25 -5 -14 -6 -25 -2 -25 9 0 6 -75 -3 -90 -3 -6 -2 -10 4 -10 7 0 7 -8 1
-26 -7 -16 -7 -23 0 -19 7 4 7 -3 0 -19 -6 -16 -6 -26 0 -26 6 0 6 -9 0 -25
-5 -14 -6 -25 -2 -25 9 0 6 -75 -3 -90 -3 -6 -2 -10 4 -10 7 0 7 -8 1 -26 -7
-16 -7 -23 0 -19 7 4 7 -3 0 -19 -6 -16 -6 -26 0 -26 6 0 6 -9 0 -25 -5 -14
-6 -25 -2 -25 9 0 6 -75 -3 -90 -3 -6 -2 -10 4 -10 7 0 7 -8 1 -26 -7 -16 -7
-23 0 -19 7 4 7 -3 0 -19 -6 -16 -6 -26 0 -26 6 0 6 -9 0 -25 -5 -14 -6 -25
-2 -25 9 0 6 -75 -3 -90 -3 -6 -2 -10 4 -10 7 0 7 -8 1 -26 -7 -16 -7 -23 0
-19 7 4 7 -3 0 -19 -6 -16 -6 -26 0 -26 6 0 6 -9 0 -25 -6 -16 -6 -25 1 -25 6
0 6 -7 -1 -19 -7 -13 -7 -22 0 -26 7 -4 7 -12 0 -25 -6 -11 -6 -21 -1 -24 15
-10 1 -43 -22 -54 -19 -9 -213 -78 -242 -86 -5 -2 -17 -6 -25 -9 -23 -9 -103
-37 -120 -42 -8 -2 -80 -27 -160 -55 -80 -29 -149 -53 -155 -54 -5 -1 -14 -4
-20 -7 -5 -4 -55 -21 -110 -39 -55 -18 -102 -36 -105 -39 -3 -3 -12 -7 -20 -8
-8 0 -55 -16 -105 -33 -49 -18 -94 -33 -100 -35 -5 -1 -17 -5 -25 -8 -23 -10
-243 -88 -260 -92 -8 -2 -45 -15 -82 -28 -38 -14 -68 -23 -68 -20 0 3 -6 0
-14 -6 -8 -7 -22 -13 -32 -15 -11 -3 -71 -23 -134 -46 -63 -23 -119 -43 -125
-44 -5 -2 -17 -5 -25 -8 -71 -26 -177 -63 -185 -64 -11 -2 -179 -61 -210 -74
-11 -4 -49 -18 -85 -30 -36 -12 -72 -25 -80 -28 -8 -3 -17 -6 -20 -7 -20 -5
-117 -39 -125 -44 -5 -3 -12 -6 -15 -6 -17 0 -126 -42 -132 -50 -4 -5 -8 -7
-8 -2 0 4 -17 0 -37 -8 -38 -16 -86 -13 -110 7 -7 6 -13 8 -13 5 0 -3 -44 11
-97 30 -54 19 -102 35 -108 37 -25 6 -62 18 -80 26 -23 11 -334 116 -580 197
-93 30 -177 58 -185 61 -8 3 -18 6 -22 7 -5 2 -10 4 -13 5 -3 1 -9 4 -15 5 -5
1 -12 4 -15 5 -3 1 -8 3 -12 4 -34 8 -158 54 -198 74 -79 39 -122 78 -152 140
-25 51 -28 67 -28 167 0 216 54 280 318 373 64 23 127 44 140 46 12 3 103 33
202 66 99 34 188 63 197 65 9 2 26 9 38 15 12 6 33 14 48 16 14 3 30 8 36 12
6 4 13 7 16 7 3 1 49 16 102 34 54 18 101 33 105 33 5 0 17 5 28 11 11 6 25
12 30 13 6 1 84 28 175 59 91 32 173 58 183 58 9 1 17 6 17 11 0 5 3 6 7 3 3
-4 11 -3 17 2 7 6 25 12 40 15 16 3 34 10 40 16 5 5 19 10 31 10 12 0 26 5 33
12 7 7 12 9 12 5 0 -4 14 -1 30 8 17 9 30 13 30 11 0 -3 20 3 45 14 25 11 49
20 53 21 13 3 27 7 222 74 107 37 202 68 210 71 29 7 356 120 365 126 6 3 24
9 40 13 17 5 35 9 40 11 33 9 479 165 493 173 9 5 22 10 27 10 20 3 90 23 100
29 6 4 12 7 15 7 3 1 30 9 60 20 30 11 57 20 60 20 3 1 12 4 20 8 8 3 44 15
80 27 36 11 72 24 80 27 8 3 21 7 28 9 8 1 21 6 30 10 9 4 23 8 29 10 11 2 47
14 123 42 8 3 20 6 25 8 53 17 263 91 272 97 6 4 23 8 37 9 14 1 26 5 26 9 0
4 18 10 40 14 22 4 42 11 46 16 8 14 22 11 33 -8z m-2 -2243 c-3 -11 -1 -20 4
-20 5 0 4 -11 -1 -25 -6 -16 -6 -25 0 -25 6 0 6 -9 0 -25 -5 -14 -6 -25 -2
-25 9 0 6 -75 -3 -90 -3 -6 -2 -10 4 -10 7 0 7 -8 1 -26 -7 -16 -7 -23 0 -19
7 4 7 -3 0 -19 -6 -16 -6 -26 0 -26 6 0 6 -9 0 -25 -5 -14 -6 -25 -2 -25 9 0
6 -75 -3 -90 -3 -6 -2 -10 4 -10 7 0 7 -8 1 -26 -7 -16 -7 -23 0 -19 7 4 7 -3
0 -19 -6 -16 -6 -26 0 -26 6 0 6 -9 0 -25 -5 -14 -6 -25 -2 -25 9 0 6 -75 -3
-90 -3 -6 -2 -10 4 -10 7 0 7 -8 1 -26 -7 -16 -7 -23 0 -19 7 4 7 -3 0 -19 -6
-16 -6 -26 0 -26 6 0 6 -9 0 -25 -5 -14 -6 -25 -2 -25 9 0 6 -75 -3 -90 -3 -6
-2 -10 4 -10 7 0 7 -8 1 -26 -7 -16 -7 -23 0 -19 7 4 7 -3 0 -19 -6 -16 -6
-26 0 -26 6 0 6 -9 0 -25 -6 -16 -6 -25 1 -25 6 0 6 -7 -1 -19 -7 -13 -7 -22
0 -26 7 -4 7 -12 0 -25 -7 -13 -7 -21 0 -25 7 -4 7 -13 0 -26 -8 -13 -7 -19 0
-19 7 0 8 -6 1 -18 -6 -12 -6 -23 -1 -28 5 -5 6 -15 2 -21 -7 -12 -59 1 -147
36 -25 10 -175 61 -195 67 -20 5 -221 73 -240 81 -8 3 -17 7 -20 8 -45 13
-109 35 -280 95 -113 39 -216 73 -229 76 -14 3 -29 8 -35 12 -15 9 -135 51
-166 58 -13 3 -30 10 -36 15 -7 5 -16 9 -20 8 -5 -1 -16 1 -24 4 -8 3 -37 13
-64 22 -27 9 -54 19 -60 23 -6 3 -15 7 -21 8 -29 3 -76 18 -81 25 -3 5 -14 9
-25 9 -10 0 -19 5 -19 11 0 5 -4 8 -9 5 -6 -4 -178 51 -251 81 -9 3 19 17 70
34 47 15 171 58 275 94 105 36 197 67 205 69 21 6 310 105 335 115 22 9 144
51 160 55 6 2 17 6 25 9 22 8 144 49 155 52 6 1 23 7 38 13 16 7 34 12 42 12
8 0 17 5 20 11 4 6 13 8 20 5 7 -2 16 -1 21 3 5 4 36 16 69 27 33 10 63 23 67
29 4 5 8 7 8 3 0 -3 36 6 80 22 44 16 80 26 80 23 0 -3 6 -1 13 4 6 6 39 18
72 28 33 10 66 23 73 28 6 5 12 7 12 4 0 -3 15 0 33 8 43 19 50 18 44 -5z
m803 -31 c209 -72 265 -91 275 -93 6 -1 19 -7 30 -13 11 -6 25 -11 30 -12 21
-2 110 -34 123 -44 6 -5 12 -7 12 -3 0 3 12 1 28 -5 15 -6 34 -12 42 -14 8 -2
40 -13 70 -25 30 -12 62 -23 70 -25 26 -7 68 -21 310 -105 129 -45 242 -83
250 -85 8 -2 49 -16 90 -30 41 -15 80 -28 85 -29 6 -1 24 -7 40 -13 17 -6 39
-15 50 -19 11 -4 23 -8 28 -9 4 -2 8 -3 10 -5 1 -1 9 -3 17 -5 15 -4 252 -85
425 -145 50 -18 95 -33 100 -34 6 -2 18 -6 28 -9 9 -4 25 -10 35 -14 9 -3 23
-7 29 -9 11 -2 68 -22 123 -42 8 -3 18 -6 23 -7 4 -2 9 -4 12 -5 3 -1 10 -4
15 -5 6 -1 12 -4 15 -5 3 -1 8 -3 13 -4 20 -5 59 -18 77 -26 11 -5 67 -25 125
-44 58 -19 193 -64 300 -101 107 -37 200 -68 205 -70 6 -1 17 -5 25 -8 8 -3
67 -24 130 -45 63 -22 157 -54 208 -72 52 -18 99 -33 105 -34 7 -1 17 -4 22
-7 6 -4 42 -16 80 -28 39 -13 79 -26 90 -30 11 -5 91 -32 178 -60 149 -48 245
-87 257 -101 3 -4 12 -9 21 -12 32 -12 88 -94 103 -149 13 -51 15 -205 3 -256
-13 -54 -77 -143 -104 -143 -7 0 -13 -4 -13 -8 0 -8 -67 -44 -74 -39 -1 1 -10
-4 -18 -11 -9 -7 -24 -15 -34 -17 -11 -2 -127 -40 -259 -85 -132 -44 -247 -83
-255 -85 -8 -2 -49 -16 -90 -30 -41 -14 -82 -28 -90 -30 -8 -2 -28 -9 -45 -16
-34 -14 -54 -20 -72 -21 -7 -1 -13 -5 -13 -10 0 -5 -4 -7 -8 -4 -5 3 -20 -1
-35 -9 -15 -8 -27 -12 -27 -9 0 3 -6 2 -12 -3 -7 -4 -17 -8 -23 -9 -5 -2 -77
-26 -160 -54 -82 -29 -154 -53 -160 -55 -5 -1 -23 -7 -40 -14 -35 -14 -50 -11
-215 49 -95 34 -152 54 -190 65 -3 1 -18 7 -33 13 -16 7 -31 12 -34 12 -5 0
-223 75 -253 87 -8 4 -18 7 -22 8 -5 2 -10 4 -13 5 -3 1 -8 3 -12 5 -5 1 -15
5 -23 8 -8 3 -42 15 -75 26 -33 11 -125 43 -205 71 -80 28 -152 53 -162 55 -9
2 -30 11 -47 19 -17 9 -31 14 -31 11 0 -2 -22 4 -48 14 -27 11 -84 31 -128 45
-43 15 -88 31 -99 35 -11 5 -54 21 -95 34 -41 14 -147 51 -235 82 -88 31 -164
58 -170 59 -5 2 -17 6 -25 9 -8 3 -69 25 -135 47 -66 23 -172 60 -235 82 -63
22 -119 41 -125 43 -5 1 -21 6 -35 12 -14 5 -81 29 -150 53 -130 45 -155 62
-139 92 6 11 5 19 -1 23 -7 4 -7 11 -2 18 5 7 6 23 2 37 -4 14 -3 35 1 48 5
13 5 22 -1 22 -6 0 -6 9 0 25 5 14 6 25 2 25 -4 0 -7 14 -7 30 0 17 3 30 7 30
4 0 3 11 -2 25 -6 16 -6 25 1 25 6 0 6 7 -1 20 -7 13 -7 20 -1 20 7 0 7 9 1
25 -6 17 -6 25 1 25 6 0 7 4 4 10 -9 15 -12 90 -3 90 4 0 3 12 -2 26 -7 16 -7
23 0 19 7 -4 7 3 0 19 -6 16 -6 26 0 26 6 0 6 9 0 25 -6 15 -6 26 0 30 7 4 6
13 0 26 -7 12 -7 19 -1 19 7 0 7 9 1 25 -6 16 -6 25 0 25 6 0 6 10 0 26 -7 16
-7 23 0 19 7 -4 7 3 0 19 -6 16 -6 26 0 26 6 0 6 9 1 23 -5 13 -5 30 0 39 6
11 5 19 -1 23 -7 4 -7 12 0 25 7 13 7 21 -1 26 -7 4 -8 9 0 17 6 6 7 16 1 28
-7 12 -6 20 0 24 8 5 8 11 0 20 -8 9 -8 15 0 20 6 4 7 12 1 24 -6 10 -6 23 -1
31 5 8 6 19 2 25 -9 14 -9 37 1 58 5 10 4 17 -3 17 -8 0 -8 6 0 20 8 14 8 20
0 20 -8 0 -8 6 0 20 8 14 8 20 0 20 -8 0 -8 6 0 20 8 14 8 20 0 20 -8 0 -8 6
0 20 8 14 8 20 0 20 -8 0 -8 6 0 20 8 14 8 20 0 20 -8 0 -8 6 0 20 7 13 7 20
1 20 -7 0 -6 9 1 25 8 18 17 24 27 20 9 -4 68 -25 131 -46z m-5130 -436 c8 -3
18 -7 23 -8 4 -2 9 -4 12 -5 3 -1 10 -4 15 -5 6 -1 12 -3 15 -4 3 0 6 -1 8 0
1 0 27 -9 57 -21 30 -12 62 -23 70 -25 19 -5 128 -43 155 -55 20 -9 60 -22 80
-26 6 -1 21 -6 35 -12 28 -10 26 -11 -235 -102 -82 -28 -159 -55 -170 -60 -11
-5 -40 -16 -65 -24 -25 -8 -69 -24 -99 -35 l-53 -22 4 41 c2 22 0 40 -5 40 -4
0 -5 5 -2 10 4 6 6 41 5 78 -2 76 -1 65 0 193 l1 96 67 -24 c37 -13 74 -26 82
-30z m1499 -523 c5 0 22 -5 38 -12 15 -6 33 -12 38 -14 6 -1 39 -13 75 -26 36
-14 67 -25 70 -26 17 -4 48 -15 63 -23 10 -5 22 -7 27 -4 6 4 10 1 10 -6 0 -7
3 -10 6 -7 3 4 22 0 42 -9 20 -8 43 -17 51 -19 13 -3 107 -36 161 -57 14 -5
90 -30 100 -32 3 -1 16 -6 30 -12 14 -5 75 -27 135 -47 61 -21 119 -41 130
-46 11 -5 40 -16 65 -24 25 -8 124 -42 220 -76 96 -34 182 -63 190 -65 8 -2
42 -14 75 -25 72 -26 177 -63 340 -120 66 -22 129 -45 140 -50 11 -5 67 -24
125 -44 58 -19 119 -40 135 -47 17 -6 37 -13 45 -15 13 -2 175 -59 220 -77 20
-8 131 -46 150 -52 98 -28 139 -49 149 -76 6 -17 6 -29 1 -29 -6 0 -6 -10 0
-25 6 -15 6 -26 0 -30 -7 -4 -6 -13 0 -26 7 -12 7 -19 1 -19 -7 0 -7 -9 -1
-25 6 -16 6 -25 0 -25 -6 0 -6 -10 0 -26 7 -16 7 -23 0 -19 -7 4 -7 -3 0 -19
6 -16 6 -26 0 -26 -6 0 -6 -9 0 -25 6 -15 6 -26 0 -30 -7 -4 -6 -13 0 -26 7
-12 7 -19 1 -19 -7 0 -7 -9 -1 -25 6 -16 6 -25 0 -25 -6 0 -6 -10 0 -26 7 -16
7 -23 0 -19 -7 4 -7 -3 0 -19 6 -16 6 -26 0 -26 -6 0 -6 -9 0 -25 6 -15 6 -26
0 -30 -7 -4 -6 -13 0 -26 7 -12 7 -19 1 -19 -7 0 -7 -9 -1 -25 6 -16 6 -25 0
-25 -6 0 -6 -10 0 -26 7 -16 7 -23 0 -19 -7 4 -7 -3 0 -19 6 -16 6 -26 0 -26
-6 0 -6 -9 0 -25 6 -15 6 -26 0 -30 -7 -4 -6 -13 0 -26 7 -12 7 -19 1 -19 -7
0 -7 -9 -1 -25 6 -16 6 -25 0 -25 -6 0 -6 -10 0 -26 7 -16 7 -23 0 -19 -7 4
-7 -3 0 -19 6 -16 6 -26 0 -26 -6 0 -6 -9 -1 -23 5 -13 5 -30 0 -39 -6 -11 -5
-19 1 -23 7 -4 7 -12 0 -25 -7 -13 -7 -21 1 -26 7 -4 8 -9 0 -17 -6 -6 -7 -16
-1 -28 7 -12 6 -20 0 -24 -8 -5 -8 -11 0 -20 8 -9 8 -15 0 -20 -6 -4 -7 -12
-1 -23 6 -10 6 -23 0 -34 -6 -10 -5 -19 1 -23 7 -4 7 -12 0 -25 -7 -13 -7 -21
1 -26 7 -4 8 -9 0 -17 -6 -6 -7 -16 -1 -28 7 -12 6 -20 0 -24 -8 -5 -8 -11 0
-20 8 -9 8 -15 0 -20 -6 -4 -7 -12 0 -24 20 -38 -8 -39 -108 -5 -53 18 -243
83 -422 144 -179 61 -392 134 -475 162 -82 28 -198 68 -257 88 -60 21 -108 36
-108 33 0 -3 -6 -1 -12 4 -7 6 -71 30 -143 53 -71 23 -134 45 -140 49 -5 3
-16 6 -22 7 -7 1 -32 9 -55 18 -24 9 -131 45 -238 81 -107 36 -202 68 -210 71
-8 3 -17 6 -20 6 -3 0 -34 12 -69 25 -35 13 -132 46 -215 73 -83 28 -159 54
-168 60 -10 5 -26 10 -36 10 -10 0 -22 3 -26 7 -3 4 -12 8 -19 9 -7 1 -118 39
-247 84 -129 45 -262 90 -295 101 -33 11 -67 23 -75 26 -8 3 -24 8 -34 10 -11
2 -26 8 -33 15 -7 6 -16 8 -20 5 -3 -4 -15 -1 -27 5 -11 7 -25 13 -31 14 -5 1
-102 34 -215 72 -113 38 -277 93 -365 122 -248 81 -315 121 -362 218 -25 51
-28 67 -28 167 0 138 17 191 86 256 36 34 72 55 146 85 54 21 103 39 108 40 6
1 123 39 260 85 138 45 255 84 260 85 6 2 34 12 63 23 28 12 52 18 52 15 0 -4
6 -2 13 3 6 6 116 45 242 87 127 43 237 80 245 83 8 4 17 7 20 8 3 1 20 6 38
10 18 4 35 11 38 16 3 5 18 2 34 -6 16 -8 33 -15 39 -15z m3569 -1261 c48 -17
92 -32 97 -33 6 -2 17 -6 25 -9 8 -3 47 -16 85 -28 39 -12 75 -26 81 -31 7 -5
16 -8 20 -7 5 1 22 -3 37 -9 16 -7 33 -12 38 -12 5 0 17 -4 27 -9 9 -6 53 -21
97 -36 44 -14 87 -28 95 -32 8 -3 20 -7 25 -8 15 -4 356 -121 390 -135 17 -6
31 -11 32 -11 4 1 36 -10 63 -21 14 -5 36 -12 49 -14 13 -3 36 -11 52 -19 15
-8 36 -15 47 -15 10 0 22 -3 26 -7 4 -5 12 -9 17 -9 5 -1 10 -2 12 -4 1 -1 9
-3 17 -5 8 -2 124 -41 256 -87 259 -89 260 -89 164 -118 -25 -7 -49 -16 -55
-19 -5 -3 -12 -6 -15 -7 -17 -3 -127 -38 -140 -45 -8 -4 -109 -40 -225 -78
-115 -39 -302 -103 -415 -142 -113 -39 -212 -72 -220 -74 -8 -2 -17 -4 -20 -5
-3 -1 -8 -2 -12 -1 -5 0 -8 -4 -8 -10 0 -5 -4 -8 -9 -5 -5 3 -22 -1 -40 -10
-17 -8 -40 -16 -51 -17 -11 -1 -20 -6 -20 -11 0 -5 -3 -7 -6 -4 -3 3 -31 -3
-62 -14 -196 -69 -546 -187 -549 -184 -8 7 -9 75 -1 70 4 -3 4 6 -2 20 -6 17
-6 26 1 26 6 0 6 7 -1 20 -8 14 -8 20 0 20 7 0 8 6 1 17 -6 11 -6 24 0 35 7
12 6 18 -1 18 -8 0 -8 6 0 20 8 14 8 20 0 20 -8 0 -8 6 0 20 8 14 8 20 0 20
-8 0 -8 6 0 20 8 14 8 20 0 20 -8 0 -8 6 0 20 8 14 8 20 0 20 -8 0 -8 6 0 20
8 14 8 20 0 20 -8 0 -8 6 0 20 8 14 8 20 0 20 -8 0 -8 6 0 20 8 14 8 20 0 20
-8 0 -8 6 0 20 8 14 8 20 0 20 -8 0 -8 6 0 20 8 14 8 20 0 20 -8 0 -8 6 0 20
8 14 8 20 0 20 -6 0 -8 5 -5 11 10 15 12 80 3 85 -4 3 -3 16 2 30 7 17 7 23 0
19 -7 -4 -7 3 0 19 6 16 6 26 0 26 -6 0 -6 10 0 26 7 16 7 23 0 19 -7 -4 -7 3
0 19 6 16 6 26 0 26 -6 0 -6 9 0 25 5 14 6 25 2 25 -9 0 -6 75 3 90 3 6 2 10
-4 10 -7 0 -7 8 -1 26 7 16 7 23 0 19 -7 -4 -7 3 0 19 6 16 6 26 0 26 -6 0 -6
9 0 25 5 14 6 25 2 25 -9 0 -6 75 3 90 3 6 1 10 -5 10 -6 0 -8 5 -5 10 8 13 5
14 103 -21z m4383 -431 c1 -18 1 -36 0 -40 -1 -6 -1 -100 0 -153 0 -11 0 -66
-1 -122 0 -118 1 -117 -85 -79 -30 14 -55 23 -55 21 0 -2 -27 7 -59 20 -33 13
-62 20 -65 17 -3 -3 -6 1 -6 8 0 7 -3 11 -6 7 -3 -3 -26 3 -50 13 -24 11 -44
17 -44 13 0 -3 -7 0 -15 7 -8 7 -15 9 -15 5 0 -4 -6 -2 -13 4 -8 6 -17 8 -20
4 -4 -3 -7 0 -7 7 0 7 -2 11 -5 8 -3 -3 -43 8 -88 24 -45 17 -88 30 -95 31
-23 1 2 13 83 41 44 15 89 32 100 36 54 24 195 69 195 62 0 -4 4 -2 8 3 4 6
40 21 80 34 40 13 75 27 77 32 3 4 11 6 18 3 7 -2 21 2 32 10 29 22 35 20 36
-16z m-1515 -549 c32 -11 66 -22 74 -24 8 -2 16 -4 18 -5 1 -2 5 -3 10 -5 4
-1 14 -4 22 -8 21 -8 112 -38 130 -42 17 -4 123 -42 155 -55 11 -4 40 -14 65
-21 25 -7 50 -16 55 -19 6 -4 37 -15 70 -25 33 -9 74 -23 90 -30 23 -10 212
-75 235 -80 3 -1 12 -4 20 -7 27 -11 185 -58 192 -58 4 -1 28 -9 52 -20 24
-10 47 -16 50 -13 3 4 6 2 6 -4 0 -5 6 -10 13 -10 6 0 39 -13 71 -28 79 -36
149 -108 167 -172 14 -48 18 -213 7 -264 -13 -58 -77 -149 -105 -149 -7 0 -13
-4 -13 -8 0 -9 -65 -44 -89 -48 -8 -1 -18 -9 -22 -16 -5 -7 -9 -10 -9 -6 0 4
-36 -5 -80 -21 -44 -17 -81 -30 -83 -30 -1 0 -9 -2 -17 -5 -133 -44 -248 -79
-257 -79 -7 0 -13 -3 -13 -7 0 -3 -9 -6 -20 -7 -10 -1 -34 -8 -52 -17 -31 -13
-70 -27 -93 -32 -5 -1 -23 -8 -40 -15 -16 -6 -34 -13 -40 -14 -5 0 -17 -4 -25
-7 -8 -4 -58 -21 -110 -38 -52 -18 -191 -65 -307 -106 -117 -40 -213 -70 -213
-66 0 4 -4 2 -8 -3 -5 -9 -75 -35 -102 -40 -3 0 -9 -3 -15 -6 -5 -4 -23 -10
-40 -14 -40 -11 -44 -12 -52 -15 -5 -1 -11 -2 -15 -1 -5 0 -8 -4 -8 -11 0 -6
-3 -9 -6 -5 -4 3 -23 -1 -43 -9 -20 -9 -40 -17 -46 -18 -46 -12 -72 -20 -80
-25 -5 -3 -14 -6 -20 -7 -5 -1 -68 -23 -140 -48 -71 -26 -132 -47 -135 -47
-11 -3 -31 -9 -47 -16 -10 -3 -20 -7 -23 -8 -23 -6 -58 -18 -75 -25 -23 -9
-175 -61 -190 -65 -5 -1 -23 -7 -40 -14 -16 -7 -38 -13 -47 -14 -10 -1 -18 -6
-18 -11 0 -5 -3 -7 -6 -4 -3 4 -22 0 -42 -9 -20 -8 -43 -16 -51 -18 -19 -5
-493 -168 -533 -184 -16 -6 -28 -7 -28 -4 0 4 -5 2 -12 -5 -7 -7 -19 -12 -27
-12 -9 0 -29 -7 -45 -15 -15 -8 -32 -12 -37 -9 -5 3 -9 0 -9 -5 0 -6 -3 -10
-7 -9 -11 2 -66 -13 -78 -22 -8 -5 -82 -30 -105 -35 -24 -5 -88 -30 -97 -38
-7 -5 -13 -7 -13 -4 0 3 -44 -10 -97 -30 -54 -19 -102 -36 -108 -37 -5 -1 -35
-11 -65 -21 -30 -11 -57 -20 -60 -20 -3 -1 -13 -5 -22 -8 -24 -9 -53 -19 -53
-17 0 0 -30 -10 -67 -24 -38 -14 -68 -23 -68 -20 0 4 -6 2 -12 -3 -7 -6 -28
-15 -45 -21 -27 -9 -34 -8 -42 6 -6 10 -6 23 0 34 6 10 5 19 -1 23 -7 4 -7 12
0 25 7 13 7 21 -1 26 -7 4 -8 9 0 17 6 6 7 16 1 28 -7 12 -6 20 0 24 8 5 8 11
0 20 -8 9 -8 15 0 20 6 4 7 12 1 24 -6 10 -6 23 -1 31 5 8 6 19 2 25 -9 14 -9
37 1 58 5 10 4 17 -3 17 -8 0 -8 6 0 20 8 14 8 20 0 20 -8 0 -8 6 0 20 8 14 8
20 0 20 -8 0 -8 6 0 20 8 14 8 20 0 20 -8 0 -8 6 0 20 8 14 8 20 0 20 -8 0 -8
6 0 20 8 14 8 20 0 20 -8 0 -8 6 0 20 8 14 8 20 0 20 -8 0 -8 6 0 20 8 14 8
20 0 20 -8 0 -8 6 0 20 8 14 8 20 0 20 -8 0 -8 6 0 20 8 14 8 20 0 20 -8 0 -8
6 0 20 8 14 8 20 0 20 -8 0 -8 6 0 20 8 14 8 20 0 20 -8 0 -8 6 0 20 8 14 8
20 0 20 -8 0 -8 6 0 20 8 14 8 20 0 20 -8 0 -8 6 0 20 8 14 8 20 0 20 -7 0 -8
7 -3 18 10 21 10 53 0 69 -4 6 -3 14 3 18 7 4 7 12 0 25 -7 13 -7 21 0 25 7 4
7 12 1 23 -6 10 -6 23 0 34 7 12 6 18 -1 18 -7 0 -8 6 0 19 7 13 7 22 0 26 -7
4 -7 13 0 24 6 12 5 22 -1 28 -8 8 -7 13 0 17 8 5 8 13 1 26 -7 13 -7 21 0 25
7 4 7 13 0 26 -8 13 -7 19 0 19 7 0 8 6 0 19 -7 13 -7 22 0 26 7 4 7 13 0 26
-7 12 -7 19 -1 19 7 0 7 9 1 25 -5 14 -6 25 -1 25 5 0 8 8 7 17 -1 13 24 26
109 56 61 21 213 74 339 119 126 44 234 81 240 83 6 1 22 6 36 12 14 5 68 25
120 42 52 18 102 35 110 38 8 3 20 7 25 9 6 1 75 26 155 54 205 73 253 90 270
95 29 8 206 72 216 77 5 4 26 9 47 13 20 4 37 11 37 16 0 5 7 9 16 9 13 0 115
32 184 58 8 3 17 6 20 7 3 1 12 4 20 8 41 15 169 60 295 103 77 26 145 51 151
55 6 5 13 6 17 3 3 -3 17 2 31 11 14 10 26 14 26 10 0 -4 6 -3 13 2 6 6 24 13
39 17 15 3 40 11 55 18 15 6 35 13 43 15 8 2 69 23 135 47 66 24 127 44 136
45 9 0 42 -8 75 -20z"/>
</g>
</svg>
